<svg width="107" height="34" viewBox="0 0 107 34" fill="none" xmlns="http://www.w3.org/2000/svg">
<g filter="url(#filter0_d_44_5124)">
<rect x="1" width="105" height="32" rx="8" fill="#004170"/>
<path d="M12.9815 20H11.294L14.3665 11.2727H16.3182L19.3949 20H17.7074L15.3764 13.0625H15.3082L12.9815 20ZM13.0369 16.5781H17.6392V17.848H13.0369V16.5781ZM22.706 20.1151C22.1918 20.1151 21.7315 19.983 21.3253 19.7188C20.919 19.4545 20.598 19.071 20.3622 18.5682C20.1264 18.0653 20.0085 17.4545 20.0085 16.7358C20.0085 16.0085 20.1278 15.3949 20.3665 14.8949C20.608 14.392 20.9332 14.0128 21.3423 13.7571C21.7514 13.4986 22.2074 13.3693 22.7102 13.3693C23.0938 13.3693 23.4091 13.4347 23.6562 13.5653C23.9034 13.6932 24.0994 13.848 24.2443 14.0298C24.3892 14.2088 24.5014 14.3778 24.581 14.5369H24.6449V11.2727H26.1918V20H24.6747V18.9688H24.581C24.5014 19.1278 24.3864 19.2969 24.2358 19.4759C24.0852 19.652 23.8864 19.8026 23.6392 19.9276C23.392 20.0526 23.081 20.1151 22.706 20.1151ZM23.1364 18.8494C23.4631 18.8494 23.7415 18.7614 23.9716 18.5852C24.2017 18.4062 24.3764 18.1577 24.4957 17.8395C24.6151 17.5213 24.6747 17.1506 24.6747 16.7273C24.6747 16.304 24.6151 15.9361 24.4957 15.6236C24.3793 15.3111 24.206 15.0682 23.9759 14.8949C23.7486 14.7216 23.4688 14.6349 23.1364 14.6349C22.7926 14.6349 22.5057 14.7244 22.2756 14.9034C22.0455 15.0824 21.8722 15.3295 21.7557 15.6449C21.6392 15.9602 21.581 16.321 21.581 16.7273C21.581 17.1364 21.6392 17.5014 21.7557 17.8224C21.875 18.1406 22.0497 18.392 22.2798 18.5767C22.5128 18.7585 22.7983 18.8494 23.1364 18.8494ZM30.2646 20.1151C29.7504 20.1151 29.2901 19.983 28.8839 19.7188C28.4776 19.4545 28.1566 19.071 27.9208 18.5682C27.685 18.0653 27.5671 17.4545 27.5671 16.7358C27.5671 16.0085 27.6864 15.3949 27.9251 14.8949C28.1665 14.392 28.4918 14.0128 28.9009 13.7571C29.31 13.4986 29.766 13.3693 30.2688 13.3693C30.6523 13.3693 30.9677 13.4347 31.2148 13.5653C31.462 13.6932 31.658 13.848 31.8029 14.0298C31.9478 14.2088 32.06 14.3778 32.1396 14.5369H32.2035V11.2727H33.7504V20H32.2333V18.9688H32.1396C32.06 19.1278 31.945 19.2969 31.7944 19.4759C31.6438 19.652 31.445 19.8026 31.1978 19.9276C30.9506 20.0526 30.6396 20.1151 30.2646 20.1151ZM30.695 18.8494C31.0217 18.8494 31.3001 18.7614 31.5302 18.5852C31.7603 18.4062 31.935 18.1577 32.0543 17.8395C32.1737 17.5213 32.2333 17.1506 32.2333 16.7273C32.2333 16.304 32.1737 15.9361 32.0543 15.6236C31.9379 15.3111 31.7646 15.0682 31.5344 14.8949C31.3072 14.7216 31.0273 14.6349 30.695 14.6349C30.3512 14.6349 30.0643 14.7244 29.8342 14.9034C29.604 15.0824 29.4308 15.3295 29.3143 15.6449C29.1978 15.9602 29.1396 16.321 29.1396 16.7273C29.1396 17.1364 29.1978 17.5014 29.3143 17.8224C29.4336 18.1406 29.6083 18.392 29.8384 18.5767C30.0714 18.7585 30.3569 18.8494 30.695 18.8494ZM41.6392 13.4545V14.6477H37.8764V13.4545H41.6392ZM38.8054 11.8864H40.348V18.0312C40.348 18.2386 40.3793 18.3977 40.4418 18.5085C40.5071 18.6165 40.5923 18.6903 40.6974 18.7301C40.8026 18.7699 40.919 18.7898 41.0469 18.7898C41.1435 18.7898 41.2315 18.7827 41.3111 18.7685C41.3935 18.7543 41.456 18.7415 41.4986 18.7301L41.7585 19.9361C41.6761 19.9645 41.5582 19.9957 41.4048 20.0298C41.2543 20.0639 41.0696 20.0838 40.8509 20.0895C40.4645 20.1009 40.1165 20.0426 39.8068 19.9148C39.4972 19.7841 39.2514 19.5824 39.0696 19.3097C38.8906 19.0369 38.8026 18.696 38.8054 18.2869V11.8864ZM45.7141 20.1278C45.0749 20.1278 44.521 19.9872 44.0522 19.706C43.5835 19.4247 43.2198 19.0312 42.9613 18.5256C42.7056 18.0199 42.5778 17.429 42.5778 16.7528C42.5778 16.0767 42.7056 15.4844 42.9613 14.9759C43.2198 14.4673 43.5835 14.0724 44.0522 13.7912C44.521 13.5099 45.0749 13.3693 45.7141 13.3693C46.3533 13.3693 46.9073 13.5099 47.3761 13.7912C47.8448 14.0724 48.207 14.4673 48.4627 14.9759C48.7212 15.4844 48.8505 16.0767 48.8505 16.7528C48.8505 17.429 48.7212 18.0199 48.4627 18.5256C48.207 19.0312 47.8448 19.4247 47.3761 19.706C46.9073 19.9872 46.3533 20.1278 45.7141 20.1278ZM45.7227 18.892C46.0692 18.892 46.359 18.7969 46.592 18.6065C46.8249 18.4134 46.9982 18.1548 47.1119 17.831C47.2283 17.5071 47.2866 17.1463 47.2866 16.7486C47.2866 16.348 47.2283 15.9858 47.1119 15.6619C46.9982 15.3352 46.8249 15.0753 46.592 14.8821C46.359 14.6889 46.0692 14.5923 45.7227 14.5923C45.3675 14.5923 45.0721 14.6889 44.8363 14.8821C44.6033 15.0753 44.4286 15.3352 44.3121 15.6619C44.1985 15.9858 44.1417 16.348 44.1417 16.7486C44.1417 17.1463 44.1985 17.5071 44.3121 17.831C44.4286 18.1548 44.6033 18.4134 44.8363 18.6065C45.0721 18.7969 45.3675 18.892 45.7227 18.892ZM55.9915 20.1278C55.3381 20.1278 54.777 19.9844 54.3082 19.6974C53.8423 19.4105 53.483 19.0142 53.2301 18.5085C52.9801 18 52.8551 17.4148 52.8551 16.7528C52.8551 16.0881 52.983 15.5014 53.2386 14.9929C53.4943 14.4815 53.8551 14.0838 54.321 13.7997C54.7898 13.5128 55.3438 13.3693 55.983 13.3693C56.5142 13.3693 56.9844 13.4673 57.3935 13.6634C57.8054 13.8565 58.1335 14.1307 58.3778 14.4858C58.6222 14.8381 58.7614 15.25 58.7955 15.7216H57.321C57.2614 15.4062 57.1193 15.1435 56.8949 14.9332C56.6733 14.7202 56.3764 14.6136 56.0043 14.6136C55.6889 14.6136 55.4119 14.6989 55.1733 14.8693C54.9347 15.0369 54.7486 15.2784 54.6151 15.5938C54.4844 15.9091 54.419 16.2869 54.419 16.7273C54.419 17.1733 54.4844 17.5568 54.6151 17.8778C54.7457 18.196 54.929 18.4418 55.1648 18.6151C55.4034 18.7855 55.6832 18.8707 56.0043 18.8707C56.2315 18.8707 56.4347 18.8281 56.6136 18.7429C56.7955 18.6548 56.9474 18.5284 57.0696 18.3636C57.1918 18.1989 57.2756 17.9986 57.321 17.7628H58.7955C58.7585 18.2259 58.6222 18.6364 58.3864 18.9943C58.1506 19.3494 57.8295 19.6278 57.4233 19.8295C57.017 20.0284 56.5398 20.1278 55.9915 20.1278ZM61.9457 20.1321C61.5309 20.1321 61.1573 20.0582 60.8249 19.9105C60.4954 19.7599 60.234 19.5384 60.0408 19.2457C59.8505 18.9531 59.7553 18.5923 59.7553 18.1634C59.7553 17.794 59.8235 17.4886 59.9599 17.2472C60.0962 17.0057 60.2823 16.8125 60.5181 16.6676C60.7539 16.5227 61.0195 16.4134 61.315 16.3395C61.6133 16.2628 61.9215 16.2074 62.2397 16.1733C62.6232 16.1335 62.9343 16.098 63.1729 16.0668C63.4116 16.0327 63.5849 15.9815 63.6928 15.9134C63.8036 15.8423 63.859 15.733 63.859 15.5852V15.5597C63.859 15.2386 63.7638 14.9901 63.5735 14.8139C63.3832 14.6378 63.109 14.5497 62.7511 14.5497C62.3732 14.5497 62.0735 14.6321 61.8519 14.7969C61.6332 14.9616 61.4854 15.1562 61.4087 15.3807L59.9684 15.1761C60.082 14.7784 60.2695 14.446 60.5309 14.179C60.7923 13.9091 61.1119 13.7074 61.4897 13.5739C61.8675 13.4375 62.2852 13.3693 62.7425 13.3693C63.0579 13.3693 63.3718 13.4062 63.6843 13.4801C63.9968 13.554 64.2823 13.6761 64.5408 13.8466C64.7994 14.0142 65.0067 14.2429 65.163 14.5327C65.3221 14.8224 65.4016 15.1847 65.4016 15.6193V20H63.9187V19.1009H63.8675C63.7738 19.2827 63.6417 19.4531 63.4712 19.6122C63.3036 19.7685 63.092 19.8949 62.8363 19.9915C62.5835 20.0852 62.2866 20.1321 61.9457 20.1321ZM62.3462 18.9986C62.6559 18.9986 62.9244 18.9375 63.1516 18.8153C63.3789 18.6903 63.5536 18.5256 63.6758 18.321C63.8008 18.1165 63.8633 17.8935 63.8633 17.652V16.8807C63.815 16.9205 63.7326 16.9574 63.6161 16.9915C63.5025 17.0256 63.3746 17.0554 63.2326 17.081C63.0906 17.1065 62.9499 17.1293 62.8107 17.1491C62.6715 17.169 62.5508 17.1861 62.4485 17.2003C62.2184 17.2315 62.0124 17.2827 61.8306 17.3537C61.6488 17.4247 61.5053 17.5241 61.4002 17.652C61.2951 17.777 61.2425 17.9389 61.2425 18.1378C61.2425 18.4219 61.3462 18.6364 61.5536 18.7812C61.761 18.9261 62.0252 18.9986 62.3462 18.9986ZM66.9528 20V13.4545H68.4485V14.5455H68.5167C68.636 14.1676 68.8406 13.8764 69.1303 13.6719C69.4229 13.4645 69.7567 13.3608 70.1317 13.3608C70.217 13.3608 70.3121 13.3651 70.4173 13.3736C70.5252 13.3793 70.6147 13.3892 70.6857 13.4034V14.8224C70.6204 14.7997 70.5167 14.7798 70.3746 14.7628C70.2354 14.7429 70.1005 14.733 69.9698 14.733C69.6886 14.733 69.4357 14.794 69.2113 14.9162C68.9897 15.0355 68.815 15.2017 68.6871 15.4148C68.5593 15.6278 68.4954 15.8736 68.4954 16.152V20H66.9528ZM75.3306 13.4545V14.6477H71.5678V13.4545H75.3306ZM72.4968 11.8864H74.0394V18.0312C74.0394 18.2386 74.0707 18.3977 74.1332 18.5085C74.1985 18.6165 74.2837 18.6903 74.3888 18.7301C74.494 18.7699 74.6104 18.7898 74.7383 18.7898C74.8349 18.7898 74.9229 18.7827 75.0025 18.7685C75.0849 18.7543 75.1474 18.7415 75.19 18.7301L75.4499 19.9361C75.3675 19.9645 75.2496 19.9957 75.0962 20.0298C74.9457 20.0639 74.761 20.0838 74.5423 20.0895C74.1559 20.1009 73.8079 20.0426 73.4982 19.9148C73.1886 19.7841 72.9428 19.5824 72.761 19.3097C72.582 19.0369 72.494 18.696 72.4968 18.2869V11.8864Z" fill="white"/>
<path fill-rule="evenodd" clip-rule="evenodd" d="M89.0001 21.8333C92.2217 21.8333 94.8334 19.2216 94.8334 16C94.8334 12.7783 92.2217 10.1666 89.0001 10.1666C85.7784 10.1666 83.1667 12.7783 83.1667 16C83.1667 19.2216 85.7784 21.8333 89.0001 21.8333ZM88.4167 18.9166V16.5833H86.0834V15.4166H88.4167V13.0833H89.5834V15.4166H91.9167V16.5833H89.5834V18.9166H88.4167Z" fill="white"/>
</g>
<defs>
<filter id="filter0_d_44_5124" x="0" y="0" width="107" height="34" filterUnits="userSpaceOnUse" color-interpolation-filters="sRGB">
<feFlood flood-opacity="0" result="BackgroundImageFix"/>
<feColorMatrix in="SourceAlpha" type="matrix" values="0 0 0 0 0 0 0 0 0 0 0 0 0 0 0 0 0 0 127 0" result="hardAlpha"/>
<feMorphology radius="1" operator="erode" in="SourceAlpha" result="effect1_dropShadow_44_5124"/>
<feOffset dy="1"/>
<feGaussianBlur stdDeviation="1"/>
<feComposite in2="hardAlpha" operator="out"/>
<feColorMatrix type="matrix" values="0 0 0 0 0.0666667 0 0 0 0 0.0470588 0 0 0 0 0.133333 0 0 0 0.08 0"/>
<feBlend mode="normal" in2="BackgroundImageFix" result="effect1_dropShadow_44_5124"/>
<feBlend mode="normal" in="SourceGraphic" in2="effect1_dropShadow_44_5124" result="shape"/>
</filter>
</defs>
</svg>
