<svg width="142" height="24" viewBox="0 0 142 24" fill="none" xmlns="http://www.w3.org/2000/svg">
<path d="M-8.09431e-05 19V0.210933H4.2968V15.6406H15.8202V19H-8.09431e-05ZM25.6577 19.3255C23.8869 19.3255 22.3374 19.0304 21.0093 18.4401C19.6899 17.8498 18.6655 17.0122 17.9364 15.9271C17.2072 14.842 16.8426 13.5529 16.8426 12.0599V12.0339C16.8426 10.5495 17.2072 9.26475 17.9364 8.17968C18.6742 7.09461 19.7029 6.25694 21.0223 5.66666C22.3504 5.0677 23.8956 4.76823 25.6577 4.76823C27.4286 4.76823 28.9737 5.0677 30.2932 5.66666C31.6213 6.25694 32.6499 7.09461 33.3791 8.17968C34.1169 9.26475 34.4859 10.5495 34.4859 12.0339V12.0599C34.4859 13.5529 34.1169 14.842 33.3791 15.9271C32.6499 17.0122 31.6256 17.8498 30.3062 18.4401C28.9867 19.0304 27.4373 19.3255 25.6577 19.3255ZM25.6577 16.3177C26.5779 16.3177 27.3808 16.1528 28.0666 15.8229C28.761 15.4844 29.2992 14.9983 29.6812 14.3646C30.0631 13.7309 30.2541 12.9627 30.2541 12.0599V12.0339C30.2541 11.1398 30.0588 10.3759 29.6682 9.74219C29.2862 9.1085 28.748 8.62673 28.0536 8.29687C27.3678 7.95833 26.5692 7.78906 25.6577 7.78906C24.7463 7.78906 23.9433 7.95833 23.2489 8.29687C22.5631 8.62673 22.0249 9.1085 21.6343 9.74219C21.2524 10.3759 21.0614 11.1398 21.0614 12.0339V12.0599C21.0614 12.9627 21.2524 13.7309 21.6343 14.3646C22.0249 14.9983 22.5631 15.4844 23.2489 15.8229C23.9433 16.1528 24.7463 16.3177 25.6577 16.3177ZM44.6228 23.9479C43.0777 23.9479 41.7235 23.7743 40.5603 23.4271C39.4058 23.0885 38.4683 22.6068 37.7478 21.9818C37.036 21.3655 36.5673 20.6493 36.3416 19.8333L36.3025 19.7161H40.5343L40.5864 19.7943C40.8642 20.2196 41.3416 20.5582 42.0187 20.8099C42.6958 21.0703 43.5682 21.2005 44.6359 21.2005C46.1984 21.2005 47.3702 20.8967 48.1515 20.2891C48.9327 19.6901 49.3234 18.8437 49.3234 17.75V16.1224H49.2452C48.898 16.6693 48.4336 17.1467 47.852 17.5547C47.2704 17.9627 46.589 18.2795 45.8077 18.5052C45.0265 18.7309 44.1584 18.8437 43.2036 18.8437C41.7192 18.8437 40.4171 18.553 39.2973 17.9714C38.1862 17.3898 37.3225 16.5781 36.7062 15.5365C36.0985 14.4861 35.7947 13.2708 35.7947 11.8906V11.8776C35.7947 10.4627 36.1029 9.22569 36.7192 8.16666C37.3355 7.09896 38.1992 6.26996 39.3103 5.67968C40.4301 5.08073 41.7366 4.78125 43.2296 4.78125C44.1758 4.78125 45.0352 4.90711 45.8077 5.15885C46.589 5.40191 47.2661 5.74045 47.839 6.17448C48.4206 6.6085 48.8893 7.10764 49.2452 7.67187H49.3234V5.10677H53.464V17.6719C53.464 18.9826 53.1168 20.1068 52.4223 21.0443C51.7366 21.9818 50.734 22.6979 49.4145 23.1927C48.0951 23.6962 46.4978 23.9479 44.6228 23.9479ZM44.6489 16.0312C45.5864 16.0312 46.4024 15.8663 47.0968 15.5365C47.7999 15.1979 48.3468 14.7205 48.7374 14.1042C49.1281 13.4792 49.3234 12.75 49.3234 11.9167V11.8906C49.3234 11.0573 49.1281 10.3368 48.7374 9.72916C48.3468 9.11284 47.7999 8.63541 47.0968 8.29687C46.4024 7.95833 45.5864 7.78906 44.6489 7.78906C43.7114 7.78906 42.8911 7.95399 42.1879 8.28385C41.4935 8.61371 40.9553 9.0868 40.5734 9.70312C40.2001 10.3108 40.0135 11.0399 40.0135 11.8906V11.9167C40.0135 12.776 40.2001 13.5139 40.5734 14.1302C40.9553 14.7465 41.4935 15.2196 42.1879 15.5495C42.8911 15.8707 43.7114 16.0312 44.6489 16.0312ZM64.1348 19.3255C62.364 19.3255 60.8145 19.0304 59.4864 18.4401C58.1669 17.8498 57.1426 17.0122 56.4135 15.9271C55.6843 14.842 55.3197 13.5529 55.3197 12.0599V12.0339C55.3197 10.5495 55.6843 9.26475 56.4135 8.17968C57.1513 7.09461 58.18 6.25694 59.4994 5.66666C60.8275 5.0677 62.3727 4.76823 64.1348 4.76823C65.9057 4.76823 67.4508 5.0677 68.7702 5.66666C70.0984 6.25694 71.127 7.09461 71.8562 8.17968C72.594 9.26475 72.963 10.5495 72.963 12.0339V12.0599C72.963 13.5529 72.594 14.842 71.8562 15.9271C71.127 17.0122 70.1027 17.8498 68.7833 18.4401C67.4638 19.0304 65.9143 19.3255 64.1348 19.3255ZM64.1348 16.3177C65.055 16.3177 65.8579 16.1528 66.5437 15.8229C67.2381 15.4844 67.7763 14.9983 68.1583 14.3646C68.5402 13.7309 68.7312 12.9627 68.7312 12.0599V12.0339C68.7312 11.1398 68.5359 10.3759 68.1452 9.74219C67.7633 9.1085 67.2251 8.62673 66.5307 8.29687C65.8449 7.95833 65.0463 7.78906 64.1348 7.78906C63.2234 7.78906 62.4204 7.95833 61.726 8.29687C61.0402 8.62673 60.502 9.1085 60.1114 9.74219C59.7294 10.3759 59.5385 11.1398 59.5385 12.0339V12.0599C59.5385 12.9627 59.7294 13.7309 60.1114 14.3646C60.502 14.9983 61.0402 15.4844 61.726 15.8229C62.4204 16.1528 63.2234 16.3177 64.1348 16.3177ZM82.488 19.2214C80.4567 19.2214 78.968 18.8437 78.0218 18.0885C77.0843 17.3333 76.6156 16.1224 76.6156 14.4557V8.01041H73.764V5.10677H76.6156V1.64322H80.7692V5.10677H85.1182V8.01041H80.7822V13.9479C80.7822 14.8073 80.9949 15.4149 81.4203 15.7708C81.8543 16.1267 82.5704 16.3047 83.5687 16.3047C83.8552 16.3047 84.1329 16.2917 84.402 16.2656C84.6711 16.2396 84.9098 16.2092 85.1182 16.1745V19.013C84.7536 19.0738 84.3456 19.1215 83.8942 19.1563C83.4515 19.1997 82.9828 19.2214 82.488 19.2214ZM90.0989 23.6615C89.6475 23.6615 89.2178 23.6354 88.8098 23.5833C88.4018 23.5399 88.0459 23.4792 87.7421 23.401V20.4844C87.9939 20.5451 88.2716 20.5929 88.5755 20.6276C88.888 20.6623 89.2091 20.6797 89.539 20.6797C90.2074 20.6797 90.7803 20.5799 91.2578 20.3802C91.7352 20.1806 92.1345 19.8377 92.4557 19.3516L92.7421 18.8568L85.9583 5.10677H90.3593L95.3854 16.1875L94.6953 15.5365H95.6197L94.9296 16.1875L99.6953 5.10677H104.018L97.651 18.5312C97.0433 19.7899 96.3923 20.7925 95.6979 21.5391C95.0121 22.2943 94.2178 22.8368 93.315 23.1667C92.4123 23.4965 91.3402 23.6615 90.0989 23.6615ZM105.275 23.5703V5.10677H109.429V7.68489H109.507C109.863 7.11198 110.327 6.6085 110.9 6.17448C111.473 5.73177 112.15 5.38889 112.931 5.14583C113.721 4.90277 114.602 4.78125 115.574 4.78125C117.085 4.78125 118.396 5.08507 119.507 5.6927C120.627 6.30034 121.49 7.15104 122.098 8.24479C122.706 9.32986 123.009 10.5972 123.009 12.0469V12.0599C123.009 13.5095 122.706 14.7812 122.098 15.875C121.49 16.9601 120.631 17.8064 119.52 18.4141C118.409 19.0217 117.098 19.3255 115.587 19.3255C114.615 19.3255 113.734 19.2083 112.944 18.974C112.154 18.7309 111.469 18.3924 110.887 17.9583C110.314 17.5243 109.854 17.0165 109.507 16.4349H109.429V23.5703H105.275ZM114.142 16.2656C115.106 16.2656 115.935 16.0964 116.629 15.7578C117.324 15.4193 117.857 14.9375 118.231 14.3125C118.604 13.6875 118.791 12.9366 118.791 12.0599V12.0339C118.791 11.1658 118.604 10.4193 118.231 9.79427C117.857 9.16059 117.324 8.67882 116.629 8.34896C115.935 8.01041 115.106 7.84114 114.142 7.84114C113.187 7.84114 112.354 8.01475 111.642 8.36198C110.939 8.70052 110.392 9.18663 110.002 9.82031C109.611 10.4453 109.416 11.1875 109.416 12.0469V12.0599C109.416 12.9106 109.611 13.6528 110.002 14.2865C110.392 14.9115 110.939 15.3976 111.642 15.7448C112.354 16.092 113.187 16.2656 114.142 16.2656ZM133.094 19.3255C131.28 19.3255 129.713 19.0434 128.394 18.4792C127.083 17.9062 126.072 17.0816 125.36 16.0052C124.657 14.9288 124.305 13.6267 124.305 12.099V12.0859C124.305 10.5842 124.665 9.28646 125.386 8.19271C126.106 7.09896 127.109 6.25694 128.394 5.66666C129.687 5.0677 131.193 4.77257 132.912 4.78125C134.665 4.78993 136.171 5.09809 137.43 5.70573C138.698 6.31336 139.674 7.1684 140.36 8.27083C141.046 9.37326 141.388 10.6667 141.388 12.151V12.9714H126.428V10.6667H138.745L137.456 12.3984V11.5651C137.456 10.7404 137.278 10.033 136.922 9.44271C136.566 8.85243 136.054 8.3967 135.386 8.07552C134.717 7.75434 133.919 7.59375 132.99 7.59375C132.009 7.59375 131.171 7.75 130.477 8.0625C129.783 8.375 129.249 8.83941 128.875 9.45573C128.511 10.072 128.329 10.8273 128.329 11.7214V12.3594C128.329 13.3576 128.541 14.1649 128.967 14.7812C129.401 15.3889 129.987 15.8316 130.724 16.1094C131.462 16.3872 132.296 16.526 133.224 16.526C133.849 16.526 134.431 16.4566 134.969 16.3177C135.507 16.1788 135.972 15.9835 136.362 15.7318C136.753 15.4714 137.044 15.1632 137.235 14.8073L137.287 14.7292H141.18L141.141 14.8594C140.933 15.5625 140.59 16.1918 140.112 16.7474C139.644 17.2943 139.058 17.763 138.355 18.1536C137.652 18.5356 136.857 18.8264 135.972 19.026C135.086 19.2257 134.127 19.3255 133.094 19.3255Z" fill="#110C22"/>
</svg>
