<svg width="250" height="24" viewBox="0 0 250 24" fill="none" xmlns="http://www.w3.org/2000/svg">
<g clip-path="url(#clip0_15_22859)">
<path fill-rule="evenodd" clip-rule="evenodd" d="M16.5 12C16.5 16.1421 13.1421 19.5 9 19.5C4.85786 19.5 1.5 16.1421 1.5 12C1.5 7.85786 4.85786 4.5 9 4.5C13.1421 4.5 16.5 7.85786 16.5 12ZM8.25 9.75V8.25H9.75V9.75H8.25ZM8.25 15.75V11.25H9.75V15.75H8.25Z" fill="#0084FF"/>
<path d="M31.7195 10.2536H29.8601C29.8071 9.94863 29.7093 9.6785 29.5668 9.44318C29.4242 9.20455 29.2469 9.00237 29.0348 8.83665C28.8227 8.67093 28.5807 8.54664 28.3089 8.46378C28.0405 8.3776 27.7505 8.33452 27.4389 8.33452C26.8854 8.33452 26.3949 8.47372 25.9673 8.75213C25.5398 9.02722 25.205 9.43158 24.9631 9.9652C24.7211 10.4955 24.6001 11.1435 24.6001 11.9091C24.6001 12.688 24.7211 13.3442 24.9631 13.8778C25.2083 14.4081 25.5431 14.8092 25.9673 15.081C26.3949 15.3494 26.8838 15.4837 27.4339 15.4837C27.7389 15.4837 28.0239 15.4439 28.2891 15.3643C28.5575 15.2815 28.7978 15.1605 29.0099 15.0014C29.2254 14.8423 29.406 14.6468 29.5518 14.4148C29.701 14.1828 29.8037 13.9176 29.8601 13.6193L31.7195 13.6293C31.6499 14.1132 31.4991 14.5672 31.267 14.9915C31.0384 15.4157 30.7384 15.7902 30.3672 16.1151C29.996 16.4366 29.5618 16.6884 29.0646 16.8707C28.5675 17.0497 28.0156 17.1392 27.4091 17.1392C26.5142 17.1392 25.7154 16.9321 25.0128 16.5178C24.3101 16.1035 23.7566 15.5052 23.3523 14.723C22.9479 13.9408 22.7457 13.0028 22.7457 11.9091C22.7457 10.812 22.9496 9.87405 23.3572 9.09517C23.7649 8.31297 24.3201 7.71473 25.0227 7.30043C25.7254 6.88613 26.5208 6.67898 27.4091 6.67898C27.9759 6.67898 28.5028 6.75852 28.9901 6.91761C29.4773 7.0767 29.9115 7.31037 30.2926 7.61861C30.6738 7.92353 30.987 8.29806 31.2322 8.74219C31.4808 9.183 31.6432 9.68679 31.7195 10.2536ZM33.329 17V9.36364H35.074V10.6364H35.1536C35.2928 10.1955 35.5314 9.85582 35.8695 9.61719C36.2109 9.37524 36.6003 9.25426 37.0378 9.25426C37.1373 9.25426 37.2483 9.25923 37.3709 9.26918C37.4969 9.2758 37.6013 9.2874 37.6841 9.30398V10.9595C37.6079 10.933 37.4869 10.9098 37.3212 10.8899C37.1588 10.8667 37.0014 10.8551 36.8489 10.8551C36.5208 10.8551 36.2258 10.9264 35.964 11.0689C35.7054 11.2081 35.5016 11.402 35.3525 11.6506C35.2033 11.8991 35.1287 12.1858 35.1287 12.5107V17H33.329ZM41.946 17.1491C41.1804 17.1491 40.5192 16.9901 39.9624 16.6719C39.4089 16.3504 38.983 15.8963 38.6847 15.3097C38.3864 14.7197 38.2372 14.0253 38.2372 13.2266C38.2372 12.4411 38.3864 11.7517 38.6847 11.1584C38.9863 10.5618 39.4072 10.0978 39.9474 9.76633C40.4877 9.43158 41.1224 9.2642 41.8516 9.2642C42.3222 9.2642 42.7663 9.34044 43.1839 9.4929C43.6049 9.64205 43.9761 9.87405 44.2976 10.1889C44.6224 10.5038 44.8776 10.9048 45.0632 11.392C45.2488 11.8759 45.3416 12.4527 45.3416 13.1222V13.674H39.0824V12.4609H43.6165C43.6132 12.1162 43.5386 11.8097 43.3928 11.5412C43.2469 11.2694 43.0431 11.0556 42.7812 10.8999C42.5227 10.7441 42.2211 10.6662 41.8764 10.6662C41.5085 10.6662 41.1854 10.7557 40.907 10.9347C40.6286 11.1103 40.4115 11.3423 40.2557 11.6307C40.1032 11.9157 40.0253 12.2289 40.022 12.5703V13.6293C40.022 14.0734 40.1032 14.4545 40.2656 14.7727C40.428 15.0876 40.6551 15.3295 40.9467 15.4986C41.2384 15.6643 41.5798 15.7472 41.9709 15.7472C42.2327 15.7472 42.4697 15.7107 42.6818 15.6378C42.8939 15.5616 43.0779 15.4505 43.2337 15.3047C43.3894 15.1589 43.5071 14.9782 43.5866 14.7628L45.267 14.9517C45.161 15.3958 44.9588 15.7836 44.6605 16.1151C44.3655 16.4432 43.9877 16.6984 43.527 16.8807C43.0663 17.0597 42.5393 17.1491 41.946 17.1491ZM49.0616 17.1541C48.5777 17.1541 48.1419 17.0679 47.7541 16.8956C47.3696 16.7199 47.0647 16.4614 46.8393 16.12C46.6172 15.7786 46.5062 15.3577 46.5062 14.8572C46.5062 14.4264 46.5858 14.0701 46.7449 13.7884C46.9039 13.5066 47.121 13.2812 47.3961 13.1122C47.6712 12.9432 47.9811 12.8156 48.3258 12.7294C48.6738 12.6399 49.0334 12.5753 49.4047 12.5355C49.8521 12.4891 50.215 12.4477 50.4934 12.4112C50.7718 12.3714 50.974 12.3118 51.1 12.2322C51.2292 12.1494 51.2939 12.0218 51.2939 11.8494V11.8196C51.2939 11.4451 51.1828 11.1551 50.9608 10.9496C50.7387 10.7441 50.4189 10.6413 50.0012 10.6413C49.5604 10.6413 49.2108 10.7375 48.9522 10.9297C48.697 11.1219 48.5247 11.349 48.4352 11.6108L46.7548 11.3722C46.8874 10.9081 47.1061 10.5204 47.411 10.2088C47.716 9.89394 48.0888 9.65862 48.5297 9.50284C48.9705 9.34375 49.4577 9.2642 49.9913 9.2642C50.3592 9.2642 50.7254 9.30729 51.09 9.39347C51.4546 9.47964 51.7877 9.62216 52.0893 9.82102C52.3909 10.0166 52.6329 10.2834 52.8152 10.6214C53.0008 10.9595 53.0936 11.3821 53.0936 11.8892V17H51.3635V15.951H51.3038C51.1944 16.1631 51.0403 16.362 50.8414 16.5476C50.6459 16.7299 50.399 16.8774 50.1007 16.9901C49.8057 17.0994 49.4593 17.1541 49.0616 17.1541ZM49.5289 15.8317C49.8902 15.8317 50.2034 15.7604 50.4686 15.6179C50.7337 15.4721 50.9376 15.2798 51.0801 15.0412C51.2259 14.8026 51.2988 14.5424 51.2988 14.2607V13.3608C51.2425 13.4072 51.1464 13.4503 51.0105 13.4901C50.8779 13.5298 50.7288 13.5646 50.563 13.5945C50.3973 13.6243 50.2333 13.6508 50.0708 13.674C49.9084 13.6972 49.7676 13.7171 49.6483 13.7337C49.3798 13.7701 49.1395 13.8298 48.9274 13.9126C48.7153 13.9955 48.5479 14.1115 48.4252 14.2607C48.3026 14.4065 48.2413 14.5954 48.2413 14.8274C48.2413 15.1589 48.3623 15.4091 48.6042 15.5781C48.8462 15.7472 49.1544 15.8317 49.5289 15.8317ZM58.7164 9.36364V10.7557H54.3265V9.36364H58.7164ZM55.4103 7.53409H57.21V14.7031C57.21 14.9451 57.2465 15.1307 57.3194 15.2599C57.3957 15.3859 57.4951 15.4721 57.6177 15.5185C57.7404 15.5649 57.8762 15.5881 58.0254 15.5881C58.1381 15.5881 58.2408 15.5798 58.3336 15.5632C58.4297 15.5466 58.5027 15.5317 58.5524 15.5185L58.8556 16.9254C58.7595 16.9586 58.622 16.995 58.443 17.0348C58.2673 17.0746 58.0519 17.0978 57.7967 17.1044C57.3459 17.1177 56.9399 17.0497 56.5787 16.9006C56.2174 16.7481 55.9307 16.5128 55.7186 16.1946C55.5098 15.8764 55.407 15.4787 55.4103 15.0014V7.53409ZM63.5202 17.1491C62.7546 17.1491 62.0934 16.9901 61.5366 16.6719C60.9831 16.3504 60.5572 15.8963 60.2589 15.3097C59.9606 14.7197 59.8114 14.0253 59.8114 13.2266C59.8114 12.4411 59.9606 11.7517 60.2589 11.1584C60.5605 10.5618 60.9814 10.0978 61.5217 9.76633C62.0619 9.43158 62.6966 9.2642 63.4258 9.2642C63.8964 9.2642 64.3406 9.34044 64.7582 9.4929C65.1791 9.64205 65.5503 9.87405 65.8718 10.1889C66.1966 10.5038 66.4518 10.9048 66.6374 11.392C66.823 11.8759 66.9158 12.4527 66.9158 13.1222V13.674H60.6566V12.4609H65.1907C65.1874 12.1162 65.1128 11.8097 64.967 11.5412C64.8211 11.2694 64.6173 11.0556 64.3555 10.8999C64.0969 10.7441 63.7953 10.6662 63.4506 10.6662C63.0827 10.6662 62.7596 10.7557 62.4812 10.9347C62.2028 11.1103 61.9857 11.3423 61.8299 11.6307C61.6774 11.9157 61.5996 12.2289 61.5962 12.5703V13.6293C61.5962 14.0734 61.6774 14.4545 61.8398 14.7727C62.0022 15.0876 62.2293 15.3295 62.521 15.4986C62.8126 15.6643 63.154 15.7472 63.5451 15.7472C63.8069 15.7472 64.0439 15.7107 64.256 15.6378C64.4682 15.5616 64.6521 15.4505 64.8079 15.3047C64.9637 15.1589 65.0813 14.9782 65.1609 14.7628L66.8413 14.9517C66.7352 15.3958 66.533 15.7836 66.2347 16.1151C65.9397 16.4432 65.5619 16.6984 65.1012 16.8807C64.6405 17.0597 64.1135 17.1491 63.5202 17.1491ZM73.0297 19.8636C72.7844 19.8636 72.5574 19.8438 72.3485 19.804C72.1431 19.7675 71.979 19.7244 71.8564 19.6747L72.274 18.2727C72.5358 18.349 72.7695 18.3854 72.975 18.3821C73.1805 18.3788 73.3611 18.3142 73.5169 18.1882C73.676 18.0656 73.8102 17.8601 73.9196 17.5717L74.0737 17.1591L71.3045 9.36364H73.2136L74.9735 15.1307H75.0531L76.818 9.36364H78.7321L75.6745 17.9247C75.532 18.3291 75.3431 18.6754 75.1078 18.9638C74.8725 19.2554 74.5841 19.4775 74.2427 19.63C73.9047 19.7857 73.5003 19.8636 73.0297 19.8636ZM83.0487 17.1491C82.3029 17.1491 81.6566 16.9851 81.1097 16.657C80.5629 16.3288 80.1386 15.8698 79.837 15.2798C79.5387 14.6899 79.3896 14.0005 79.3896 13.2116C79.3896 12.4228 79.5387 11.7318 79.837 11.1385C80.1386 10.5452 80.5629 10.0845 81.1097 9.75639C81.6566 9.42827 82.3029 9.2642 83.0487 9.2642C83.7944 9.2642 84.4407 9.42827 84.9876 9.75639C85.5344 10.0845 85.957 10.5452 86.2553 11.1385C86.5569 11.7318 86.7077 12.4228 86.7077 13.2116C86.7077 14.0005 86.5569 14.6899 86.2553 15.2798C85.957 15.8698 85.5344 16.3288 84.9876 16.657C84.4407 16.9851 83.7944 17.1491 83.0487 17.1491ZM83.0586 15.7074C83.4629 15.7074 83.801 15.5964 84.0728 15.3743C84.3446 15.1489 84.5468 14.8473 84.6793 14.4695C84.8152 14.0916 84.8832 13.6707 84.8832 13.2067C84.8832 12.7393 84.8152 12.3168 84.6793 11.9389C84.5468 11.5578 84.3446 11.2545 84.0728 11.0291C83.801 10.8037 83.4629 10.6911 83.0586 10.6911C82.6443 10.6911 82.2996 10.8037 82.0245 11.0291C81.7527 11.2545 81.5489 11.5578 81.413 11.9389C81.2804 12.3168 81.2141 12.7393 81.2141 13.2067C81.2141 13.6707 81.2804 14.0916 81.413 14.4695C81.5489 14.8473 81.7527 15.1489 82.0245 15.3743C82.2996 15.5964 82.6443 15.7074 83.0586 15.7074ZM93.1025 13.7884V9.36364H94.9022V17H93.1571V15.6428H93.0776C92.9052 16.0703 92.6219 16.42 92.2275 16.6918C91.8364 16.9635 91.3541 17.0994 90.7807 17.0994C90.2802 17.0994 89.8378 16.9884 89.4533 16.7663C89.0721 16.541 88.7739 16.2145 88.5584 15.7869C88.343 15.3561 88.2353 14.8357 88.2353 14.2259V9.36364H90.035V13.9474C90.035 14.4313 90.1676 14.8158 90.4327 15.1009C90.6979 15.3859 91.0459 15.5284 91.4767 15.5284C91.7419 15.5284 91.9988 15.4638 92.2473 15.3345C92.4959 15.2053 92.6998 15.013 92.8588 14.7578C93.0212 14.4993 93.1025 14.1761 93.1025 13.7884ZM96.7528 17V9.36364H98.4979V10.6364H98.5774C98.7166 10.1955 98.9553 9.85582 99.2933 9.61719C99.6347 9.37524 100.024 9.25426 100.462 9.25426C100.561 9.25426 100.672 9.25923 100.795 9.26918C100.921 9.2758 101.025 9.2874 101.108 9.30398V10.9595C101.032 10.933 100.911 10.9098 100.745 10.8899C100.583 10.8667 100.425 10.8551 100.273 10.8551C99.9446 10.8551 99.6496 10.9264 99.3878 11.0689C99.1293 11.2081 98.9254 11.402 98.7763 11.6506C98.6271 11.8991 98.5526 12.1858 98.5526 12.5107V17H96.7528ZM109.644 9.36364V10.7557H105.13V9.36364H109.644ZM106.259 17V8.64276C106.259 8.12902 106.365 7.70147 106.577 7.36008C106.792 7.0187 107.08 6.76349 107.442 6.59446C107.803 6.42543 108.204 6.34091 108.645 6.34091C108.956 6.34091 109.233 6.36577 109.475 6.41548C109.717 6.4652 109.896 6.50994 110.012 6.54972L109.654 7.94176C109.578 7.91856 109.482 7.89536 109.366 7.87216C109.25 7.84564 109.121 7.83239 108.978 7.83239C108.643 7.83239 108.406 7.91359 108.267 8.07599C108.131 8.23508 108.063 8.46378 108.063 8.76207V17H106.259ZM111.054 17V9.36364H112.853V17H111.054ZM111.958 8.27983C111.673 8.27983 111.428 8.18537 111.223 7.99645C111.017 7.80421 110.914 7.57386 110.914 7.3054C110.914 7.03362 111.017 6.80327 111.223 6.61435C111.428 6.42211 111.673 6.32599 111.958 6.32599C112.247 6.32599 112.492 6.42211 112.694 6.61435C112.9 6.80327 113.002 7.03362 113.002 7.3054C113.002 7.57386 112.9 7.80421 112.694 7.99645C112.492 8.18537 112.247 8.27983 111.958 8.27983ZM114.704 17V9.36364H116.449V10.6364H116.529C116.668 10.1955 116.906 9.85582 117.244 9.61719C117.586 9.37524 117.975 9.25426 118.413 9.25426C118.512 9.25426 118.623 9.25923 118.746 9.26918C118.872 9.2758 118.976 9.2874 119.059 9.30398V10.9595C118.983 10.933 118.862 10.9098 118.696 10.8899C118.534 10.8667 118.376 10.8551 118.224 10.8551C117.896 10.8551 117.601 10.9264 117.339 11.0689C117.08 11.2081 116.877 11.402 116.727 11.6506C116.578 11.8991 116.504 12.1858 116.504 12.5107V17H114.704ZM126.29 11.3821L124.65 11.5611C124.603 11.3954 124.522 11.2396 124.406 11.0938C124.293 10.9479 124.141 10.8303 123.949 10.7408C123.756 10.6513 123.521 10.6065 123.243 10.6065C122.868 10.6065 122.553 10.6877 122.298 10.8501C122.046 11.0125 121.922 11.223 121.925 11.4815C121.922 11.7036 122.003 11.8842 122.169 12.0234C122.338 12.1626 122.616 12.277 123.004 12.3665L124.307 12.6449C125.029 12.8007 125.566 13.0476 125.917 13.3857C126.272 13.7237 126.451 14.1662 126.454 14.7131C126.451 15.1937 126.31 15.6179 126.032 15.9858C125.757 16.3504 125.374 16.6354 124.883 16.8409C124.393 17.0464 123.829 17.1491 123.193 17.1491C122.258 17.1491 121.506 16.9536 120.936 16.5625C120.366 16.1681 120.026 15.6196 119.917 14.9169L121.672 14.7479C121.751 15.0926 121.92 15.3527 122.179 15.5284C122.437 15.7041 122.774 15.7919 123.188 15.7919C123.616 15.7919 123.959 15.7041 124.217 15.5284C124.479 15.3527 124.61 15.1357 124.61 14.8771C124.61 14.6584 124.525 14.4777 124.356 14.3352C124.191 14.1927 123.932 14.0833 123.581 14.0071L122.278 13.7337C121.546 13.5812 121.004 13.3243 120.653 12.9631C120.301 12.5985 120.127 12.1378 120.131 11.581C120.127 11.1103 120.255 10.7027 120.513 10.358C120.775 10.0099 121.138 9.74148 121.602 9.55256C122.069 9.36032 122.608 9.2642 123.218 9.2642C124.113 9.2642 124.817 9.45478 125.331 9.83594C125.848 10.2171 126.168 10.7325 126.29 11.3821ZM131.752 9.36364V10.7557H127.362V9.36364H131.752ZM128.445 7.53409H130.245V14.7031C130.245 14.9451 130.282 15.1307 130.355 15.2599C130.431 15.3859 130.53 15.4721 130.653 15.5185C130.776 15.5649 130.911 15.5881 131.061 15.5881C131.173 15.5881 131.276 15.5798 131.369 15.5632C131.465 15.5466 131.538 15.5317 131.588 15.5185L131.891 16.9254C131.795 16.9586 131.657 16.995 131.478 17.0348C131.302 17.0746 131.087 17.0978 130.832 17.1044C130.381 17.1177 129.975 17.0497 129.614 16.9006C129.253 16.7481 128.966 16.5128 128.754 16.1946C128.545 15.8764 128.442 15.4787 128.445 15.0014V7.53409ZM142.342 9.61719C142.296 9.183 142.1 8.84493 141.756 8.60298C141.414 8.36103 140.97 8.24006 140.423 8.24006C140.039 8.24006 139.709 8.29806 139.434 8.41406C139.159 8.53007 138.948 8.6875 138.803 8.88636C138.657 9.08523 138.582 9.31226 138.579 9.56747C138.579 9.77959 138.627 9.96354 138.723 10.1193C138.822 10.2751 138.957 10.4077 139.126 10.517C139.295 10.6231 139.482 10.7126 139.688 10.7855C139.893 10.8584 140.1 10.9197 140.309 10.9695L141.263 11.2081C141.648 11.2976 142.018 11.4186 142.372 11.571C142.73 11.7235 143.05 11.9157 143.332 12.1477C143.617 12.3797 143.842 12.6598 144.008 12.9879C144.174 13.3161 144.256 13.7005 144.256 14.1413C144.256 14.7379 144.104 15.2633 143.799 15.7173C143.494 16.1681 143.053 16.5211 142.477 16.7763C141.903 17.0282 141.209 17.1541 140.393 17.1541C139.601 17.1541 138.914 17.0315 138.33 16.7862C137.75 16.541 137.296 16.183 136.968 15.7124C136.643 15.2417 136.468 14.6683 136.441 13.9922H138.256C138.282 14.3468 138.392 14.6418 138.584 14.8771C138.776 15.1125 139.026 15.2881 139.335 15.4041C139.646 15.5201 139.994 15.5781 140.379 15.5781C140.78 15.5781 141.131 15.5185 141.433 15.3991C141.737 15.2765 141.976 15.1075 142.148 14.892C142.321 14.6733 142.409 14.4181 142.412 14.1264C142.409 13.8613 142.331 13.6425 142.178 13.4702C142.026 13.2945 141.812 13.1487 141.537 13.0327C141.265 12.9134 140.947 12.8073 140.582 12.7145L139.424 12.4162C138.585 12.2008 137.923 11.8743 137.435 11.4368C136.951 10.996 136.71 10.411 136.71 9.68182C136.71 9.08191 136.872 8.55658 137.197 8.10582C137.525 7.65507 137.971 7.3054 138.534 7.05682C139.098 6.80492 139.736 6.67898 140.448 6.67898C141.171 6.67898 141.804 6.80492 142.347 7.05682C142.894 7.3054 143.323 7.65175 143.635 8.09588C143.946 8.53669 144.107 9.0438 144.117 9.61719H142.342ZM149.152 17.1491C148.406 17.1491 147.76 16.9851 147.213 16.657C146.666 16.3288 146.242 15.8698 145.941 15.2798C145.642 14.6899 145.493 14.0005 145.493 13.2116C145.493 12.4228 145.642 11.7318 145.941 11.1385C146.242 10.5452 146.666 10.0845 147.213 9.75639C147.76 9.42827 148.406 9.2642 149.152 9.2642C149.898 9.2642 150.544 9.42827 151.091 9.75639C151.638 10.0845 152.061 10.5452 152.359 11.1385C152.66 11.7318 152.811 12.4228 152.811 13.2116C152.811 14.0005 152.66 14.6899 152.359 15.2798C152.061 15.8698 151.638 16.3288 151.091 16.657C150.544 16.9851 149.898 17.1491 149.152 17.1491ZM149.162 15.7074C149.566 15.7074 149.905 15.5964 150.176 15.3743C150.448 15.1489 150.65 14.8473 150.783 14.4695C150.919 14.0916 150.987 13.6707 150.987 13.2067C150.987 12.7393 150.919 12.3168 150.783 11.9389C150.65 11.5578 150.448 11.2545 150.176 11.0291C149.905 10.8037 149.566 10.6911 149.162 10.6911C148.748 10.6911 148.403 10.8037 148.128 11.0291C147.856 11.2545 147.652 11.5578 147.517 11.9389C147.384 12.3168 147.318 12.7393 147.318 13.2067C147.318 13.6707 147.384 14.0916 147.517 14.4695C147.652 14.8473 147.856 15.1489 148.128 15.3743C148.403 15.5964 148.748 15.7074 149.162 15.7074ZM157.67 17.1491C156.907 17.1491 156.253 16.9818 155.706 16.647C155.162 16.3123 154.743 15.8499 154.448 15.2599C154.156 14.6667 154.011 13.9839 154.011 13.2116C154.011 12.4361 154.16 11.7517 154.458 11.1584C154.756 10.5618 155.177 10.0978 155.721 9.76633C156.268 9.43158 156.914 9.2642 157.66 9.2642C158.28 9.2642 158.828 9.37855 159.305 9.60724C159.786 9.83262 160.169 10.1525 160.454 10.5668C160.739 10.9777 160.901 11.4583 160.941 12.0085H159.221C159.151 11.6406 158.986 11.334 158.724 11.0888C158.465 10.8402 158.119 10.7159 157.685 10.7159C157.317 10.7159 156.994 10.8153 156.715 11.0142C156.437 11.2098 156.22 11.4915 156.064 11.8594C155.911 12.2273 155.835 12.6681 155.835 13.1818C155.835 13.7022 155.911 14.1496 156.064 14.5241C156.216 14.8954 156.43 15.1821 156.705 15.3842C156.984 15.5831 157.31 15.6825 157.685 15.6825C157.95 15.6825 158.187 15.6328 158.396 15.5334C158.608 15.4306 158.785 15.2831 158.928 15.0909C159.07 14.8987 159.168 14.665 159.221 14.3899H160.941C160.898 14.9302 160.739 15.4091 160.464 15.8267C160.189 16.241 159.814 16.5658 159.34 16.8011C158.866 17.0331 158.309 17.1491 157.67 17.1491ZM162.419 17V9.36364H164.219V17H162.419ZM163.324 8.27983C163.039 8.27983 162.793 8.18537 162.588 7.99645C162.382 7.80421 162.28 7.57386 162.28 7.3054C162.28 7.03362 162.382 6.80327 162.588 6.61435C162.793 6.42211 163.039 6.32599 163.324 6.32599C163.612 6.32599 163.857 6.42211 164.059 6.61435C164.265 6.80327 164.368 7.03362 164.368 7.3054C164.368 7.57386 164.265 7.80421 164.059 7.99645C163.857 8.18537 163.612 8.27983 163.324 8.27983ZM169.4 17.1491C168.654 17.1491 168.008 16.9851 167.461 16.657C166.914 16.3288 166.49 15.8698 166.189 15.2798C165.89 14.6899 165.741 14.0005 165.741 13.2116C165.741 12.4228 165.89 11.7318 166.189 11.1385C166.49 10.5452 166.914 10.0845 167.461 9.75639C168.008 9.42827 168.654 9.2642 169.4 9.2642C170.146 9.2642 170.792 9.42827 171.339 9.75639C171.886 10.0845 172.309 10.5452 172.607 11.1385C172.908 11.7318 173.059 12.4228 173.059 13.2116C173.059 14.0005 172.908 14.6899 172.607 15.2798C172.309 15.8698 171.886 16.3288 171.339 16.657C170.792 16.9851 170.146 17.1491 169.4 17.1491ZM169.41 15.7074C169.815 15.7074 170.153 15.5964 170.424 15.3743C170.696 15.1489 170.898 14.8473 171.031 14.4695C171.167 14.0916 171.235 13.6707 171.235 13.2067C171.235 12.7393 171.167 12.3168 171.031 11.9389C170.898 11.5578 170.696 11.2545 170.424 11.0291C170.153 10.8037 169.815 10.6911 169.41 10.6911C168.996 10.6911 168.651 10.8037 168.376 11.0291C168.104 11.2545 167.9 11.5578 167.765 11.9389C167.632 12.3168 167.566 12.7393 167.566 13.2067C167.566 13.6707 167.632 14.0916 167.765 14.4695C167.9 14.8473 168.104 15.1489 168.376 15.3743C168.651 15.5964 168.996 15.7074 169.41 15.7074ZM180.622 11.3821L178.982 11.5611C178.935 11.3954 178.854 11.2396 178.738 11.0938C178.625 10.9479 178.473 10.8303 178.281 10.7408C178.088 10.6513 177.853 10.6065 177.575 10.6065C177.2 10.6065 176.885 10.6877 176.63 10.8501C176.378 11.0125 176.254 11.223 176.257 11.4815C176.254 11.7036 176.335 11.8842 176.501 12.0234C176.67 12.1626 176.948 12.277 177.336 12.3665L178.639 12.6449C179.361 12.8007 179.898 13.0476 180.249 13.3857C180.604 13.7237 180.783 14.1662 180.786 14.7131C180.783 15.1937 180.642 15.6179 180.364 15.9858C180.089 16.3504 179.706 16.6354 179.215 16.8409C178.725 17.0464 178.161 17.1491 177.525 17.1491C176.59 17.1491 175.838 16.9536 175.268 16.5625C174.698 16.1681 174.358 15.6196 174.249 14.9169L176.004 14.7479C176.083 15.0926 176.252 15.3527 176.511 15.5284C176.769 15.7041 177.106 15.7919 177.52 15.7919C177.948 15.7919 178.291 15.7041 178.549 15.5284C178.811 15.3527 178.942 15.1357 178.942 14.8771C178.942 14.6584 178.857 14.4777 178.688 14.3352C178.523 14.1927 178.264 14.0833 177.913 14.0071L176.61 13.7337C175.878 13.5812 175.336 13.3243 174.985 12.9631C174.633 12.5985 174.459 12.1378 174.463 11.581C174.459 11.1103 174.587 10.7027 174.845 10.358C175.107 10.0099 175.47 9.74148 175.934 9.55256C176.401 9.36032 176.94 9.2642 177.55 9.2642C178.445 9.2642 179.149 9.45478 179.663 9.83594C180.18 10.2171 180.5 10.7325 180.622 11.3821ZM187.965 17L185.092 6.81818H187.075L188.91 14.3004H189.004L190.963 6.81818H192.768L194.732 14.3054H194.821L196.656 6.81818H198.639L195.766 17H193.946L191.908 9.85582H191.828L189.785 17H187.965ZM201.257 17.1541C200.773 17.1541 200.337 17.0679 199.949 16.8956C199.565 16.7199 199.26 16.4614 199.035 16.12C198.813 15.7786 198.702 15.3577 198.702 14.8572C198.702 14.4264 198.781 14.0701 198.94 13.7884C199.099 13.5066 199.316 13.2812 199.591 13.1122C199.867 12.9432 200.176 12.8156 200.521 12.7294C200.869 12.6399 201.229 12.5753 201.6 12.5355C202.047 12.4891 202.41 12.4477 202.689 12.4112C202.967 12.3714 203.169 12.3118 203.295 12.2322C203.425 12.1494 203.489 12.0218 203.489 11.8494V11.8196C203.489 11.4451 203.378 11.1551 203.156 10.9496C202.934 10.7441 202.614 10.6413 202.197 10.6413C201.756 10.6413 201.406 10.7375 201.148 10.9297C200.892 11.1219 200.72 11.349 200.631 11.6108L198.95 11.3722C199.083 10.9081 199.301 10.5204 199.606 10.2088C199.911 9.89394 200.284 9.65862 200.725 9.50284C201.166 9.34375 201.653 9.2642 202.187 9.2642C202.555 9.2642 202.921 9.30729 203.285 9.39347C203.65 9.47964 203.983 9.62216 204.285 9.82102C204.586 10.0166 204.828 10.2834 205.01 10.6214C205.196 10.9595 205.289 11.3821 205.289 11.8892V17H203.559V15.951H203.499C203.39 16.1631 203.236 16.362 203.037 16.5476C202.841 16.7299 202.594 16.8774 202.296 16.9901C202.001 17.0994 201.655 17.1541 201.257 17.1541ZM201.724 15.8317C202.086 15.8317 202.399 15.7604 202.664 15.6179C202.929 15.4721 203.133 15.2798 203.275 15.0412C203.421 14.8026 203.494 14.5424 203.494 14.2607V13.3608C203.438 13.4072 203.342 13.4503 203.206 13.4901C203.073 13.5298 202.924 13.5646 202.758 13.5945C202.593 13.6243 202.429 13.6508 202.266 13.674C202.104 13.6972 201.963 13.7171 201.844 13.7337C201.575 13.7701 201.335 13.8298 201.123 13.9126C200.911 13.9955 200.743 14.1115 200.621 14.2607C200.498 14.4065 200.437 14.5954 200.437 14.8274C200.437 15.1589 200.558 15.4091 200.8 15.5781C201.041 15.7472 201.35 15.8317 201.724 15.8317ZM208.898 6.81818V17H207.099V6.81818H208.898ZM212.549 6.81818V17H210.749V6.81818H212.549ZM217.78 17.1491C217.014 17.1491 216.353 16.9901 215.796 16.6719C215.243 16.3504 214.817 15.8963 214.519 15.3097C214.22 14.7197 214.071 14.0253 214.071 13.2266C214.071 12.4411 214.22 11.7517 214.519 11.1584C214.82 10.5618 215.241 10.0978 215.781 9.76633C216.322 9.43158 216.956 9.2642 217.686 9.2642C218.156 9.2642 218.6 9.34044 219.018 9.4929C219.439 9.64205 219.81 9.87405 220.132 10.1889C220.456 10.5038 220.712 10.9048 220.897 11.392C221.083 11.8759 221.176 12.4527 221.176 13.1222V13.674H214.916V12.4609H219.45C219.447 12.1162 219.373 11.8097 219.227 11.5412C219.081 11.2694 218.877 11.0556 218.615 10.8999C218.357 10.7441 218.055 10.6662 217.71 10.6662C217.343 10.6662 217.019 10.7557 216.741 10.9347C216.463 11.1103 216.245 11.3423 216.09 11.6307C215.937 11.9157 215.859 12.2289 215.856 12.5703V13.6293C215.856 14.0734 215.937 14.4545 216.1 14.7727C216.262 15.0876 216.489 15.3295 216.781 15.4986C217.072 15.6643 217.414 15.7472 217.805 15.7472C218.067 15.7472 218.304 15.7107 218.516 15.6378C218.728 15.5616 218.912 15.4505 219.068 15.3047C219.223 15.1589 219.341 14.9782 219.421 14.7628L221.101 14.9517C220.995 15.3958 220.793 15.7836 220.494 16.1151C220.2 16.4432 219.822 16.6984 219.361 16.8807C218.9 17.0597 218.373 17.1491 217.78 17.1491ZM226.511 9.36364V10.7557H222.121V9.36364H226.511ZM223.205 7.53409H225.005V14.7031C225.005 14.9451 225.041 15.1307 225.114 15.2599C225.191 15.3859 225.29 15.4721 225.413 15.5185C225.535 15.5649 225.671 15.5881 225.82 15.5881C225.933 15.5881 226.036 15.5798 226.129 15.5632C226.225 15.5466 226.298 15.5317 226.347 15.5185L226.651 16.9254C226.554 16.9586 226.417 16.995 226.238 17.0348C226.062 17.0746 225.847 17.0978 225.592 17.1044C225.141 17.1177 224.735 17.0497 224.374 16.9006C224.012 16.7481 223.726 16.5128 223.513 16.1946C223.305 15.8764 223.202 15.4787 223.205 15.0014V7.53409Z" fill="#0084FF"/>
<path d="M243.237 8.4375L235.837 15.837L237.163 17.1628L244.563 9.76323V15.75H246.438V6.5625H237.25V8.4375H243.237Z" fill="#0084FF"/>
</g>
<defs>
<clipPath id="clip0_15_22859">
<rect width="250" height="24" fill="white"/>
</clipPath>
</defs>
</svg>
